# xmcd CD database file
#
# Track frame offsets:
#	150
#	7746
#	30654
#	49129
#	66340
#	85033
#	101658
#	120622
#	134721
#	151223
#	177142
#	188879
#	205376
#	221681
#	238912
#	255715
#	271253
#	293146
#	313496
#	348018
#
# Disc length: 4800 seconds
#
# Revision: 0
# Processed by: cddbd v1.5.1PL0 Copyright (c) Steve Scherf et al.
# Submitted via: CDex 1.51
#
DISCID=2912be14
DTITLE=Shadow Childern - YUKIDARUMA2
DYEAR=1900
DGENRE=未分類 (日本)
TTITLE0=朝影
TTITLE1=Last Regrets
TTITLE2=約束
TTITLE3=笑顔の向こう側に
TTITLE4=少女の檻
TTITLE5=風を待った日
TTITLE6=雪の少女
TTITLE7=Pure Snows?凍土高原
TTITLE8=風の辿り着く場所
TTITLE9=鳥の詩
TTITLE10=夏影
TTITLE11=虹
TTITLE12=羽根
TTITLE13=縁
TTITLE14=蝉衣
TTITLE15=理
TTITLE16=青空
TTITLE17=回想録
TTITLE18=Farewell Song
TTITLE19=データトラック
EXTD=
EXTT0=
EXTT1=
EXTT2=
EXTT3=
EXTT4=
EXTT5=
EXTT6=
EXTT7=
EXTT8=
EXTT9=
EXTT10=
EXTT11=
EXTT12=
EXTT13=
EXTT14=
EXTT15=
EXTT16=
EXTT17=
EXTT18=
EXTT19=
PLAYORDER=
